<svg xmlns="http://www.w3.org/2000/svg" xmlns:xlink="http://www.w3.org/1999/xlink" width="500" zoomAndPan="magnify" viewBox="0 0 375 374.999991" height="500" preserveAspectRatio="xMidYMid meet" version="1.0"><defs><clipPath id="30274e353c"><path d="M 220 256 L 326.675781 256 L 326.675781 363 L 220 363 Z M 220 256 " clip-rule="nonzero"/></clipPath></defs><path fill="#263238" d="M 271.871094 169.074219 C 266.5625 161.460938 241.65625 123.929688 237.253906 105.695312 C 230.523438 77.847656 236.40625 76.664062 233.40625 61.519531 C 230.917969 48.949219 225.714844 40.394531 220.90625 33.671875 C 215.136719 26.949219 211.628906 24.058594 207.40625 21.496094 C 198.753906 16.695312 175.714844 9.664062 150.714844 23.109375 C 124.753906 36.554688 127.636719 65.363281 132.445312 123.941406 C 134.070312 142.425781 99.753906 178.675781 94.945312 189.242188 C 83.40625 211.328125 74.839844 234.804688 75.714844 249.738281 C 77.601562 291.195312 92.9375 345.441406 141.101562 342.886719 C 144.945312 341.925781 161.292969 341.925781 175.714844 341.925781 C 195.90625 340.96875 207.445312 340.007812 223.792969 343.847656 C 251.292969 346.671875 289.339844 312.726562 296.871094 248.777344 C 300.621094 221.015625 287.253906 191.160156 271.871094 169.074219 Z M 271.871094 169.074219 " fill-opacity="1" fill-rule="nonzero"/><path fill="#eceff1" d="M 141.273438 125.390625 C 141.273438 125.390625 144.957031 153.890625 122.398438 185.148438 C 99.839844 216.40625 98.003906 252.726562 105.371094 272.496094 C 112.734375 292.269531 166.589844 364.898438 236.5625 293.183594 C 248.070312 281.226562 257.734375 226.527344 238.398438 189.289062 C 219.0625 152.046875 209.859375 122.632812 208.011719 113.433594 C 206.167969 104.234375 141.273438 125.390625 141.273438 125.390625 Z M 141.273438 125.390625 " fill-opacity="1" fill-rule="nonzero"/><path fill="#263238" d="M 249.136719 198.488281 C 249.136719 198.488281 240.621094 136.730469 267.859375 167.382812 C 307.90625 212.429688 275.6875 245.839844 270.003906 251.824219 C 262.976562 259.226562 244.234375 263.828125 252.820312 242.171875 C 258.65625 227.449219 262.792969 211.355469 249.136719 198.488281 Z M 249.136719 198.488281 " fill-opacity="1" fill-rule="nonzero"/><path fill="#eceff1" d="M 239.320312 178.253906 C 239.320312 178.253906 285.351562 206.757812 248.984375 250.585938 C 238.398438 263.453125 249.601562 268.667969 256.964844 261.308594 C 264.332031 253.953125 292.871094 202.78125 239.320312 178.253906 Z M 239.320312 178.253906 " fill-opacity="1" fill-rule="nonzero"/><path fill="#263238" d="M 108.457031 204.921875 C 108.457031 204.921875 137.792969 138.019531 109.8125 167.988281 C 90.78125 188.367188 83.261719 228.6875 85.261719 244.304688 C 86.5625 254.425781 100.023438 268.175781 101.226562 244.917969 C 102.457031 221.015625 105.523438 214.574219 108.457031 204.921875 Z M 108.457031 204.921875 " fill-opacity="1" fill-rule="nonzero"/><path fill="#eceff1" d="M 101.996094 240.78125 C 101.996094 240.78125 93.398438 224.234375 109.371094 187.320312 C 86.03125 221.929688 90.484375 246.148438 100.917969 252.890625 C 111.234375 259.554688 106.90625 246.292969 101.996094 240.78125 Z M 101.996094 240.78125 " fill-opacity="1" fill-rule="nonzero"/><g clip-path="url(#30274e353c)"><path fill="#ffc107" d="M 319.945312 300.632812 C 316.101562 298.714844 309.371094 295.832031 303.601562 287.191406 C 300.714844 282.390625 301.675781 268.945312 296.871094 263.183594 C 293.984375 259.34375 290.136719 261.261719 289.175781 261.261719 C 280.523438 263.183594 260.332031 276.628906 246.871094 261.261719 C 244.945312 259.34375 242.0625 256.460938 237.253906 256.460938 C 232.445312 256.460938 230.523438 258.382812 228.601562 262.222656 C 226.675781 266.0625 226.675781 268.945312 226.675781 278.546875 C 226.675781 286.230469 226.675781 294.871094 225.714844 301.59375 C 223.792969 317.917969 220.90625 327.523438 220.90625 337.125 C 220.90625 347.6875 223.792969 354.410156 227.636719 357.292969 C 230.523438 360.171875 235.332031 362.09375 245.90625 362.09375 C 256.484375 362.09375 263.214844 358.253906 269.945312 351.53125 C 274.753906 346.730469 278.601562 344.808594 292.0625 335.207031 C 302.636719 328.484375 318.984375 319.839844 321.867188 316.960938 C 323.792969 315.039062 326.675781 314.078125 326.675781 308.316406 C 326.675781 303.515625 322.832031 301.59375 319.945312 300.632812 Z M 319.945312 300.632812 " fill-opacity="1" fill-rule="nonzero"/></g><path fill="#ffc107" d="M 126.675781 303.515625 C 117.0625 288.152344 116.101562 285.269531 109.371094 275.667969 C 103.601562 266.0625 91.101562 247.816406 83.40625 247.816406 C 77.636719 247.816406 74.753906 250.699219 70.90625 254.539062 C 67.0625 258.382812 63.214844 267.023438 56.484375 271.824219 C 50.714844 276.628906 34.371094 275.667969 30.523438 281.429688 C 26.675781 287.191406 34.371094 295.832031 34.371094 310.238281 C 34.371094 316 29.5625 319.839844 28.601562 323.679688 C 27.636719 328.484375 26.675781 331.363281 28.601562 335.207031 C 32.445312 340.96875 37.253906 342.886719 69.945312 349.609375 C 87.253906 353.449219 103.601562 363.054688 114.175781 364.015625 C 124.753906 364.972656 143.023438 364.015625 143.023438 338.085938 C 143.984375 322.722656 135.332031 318.878906 126.675781 303.515625 Z M 126.675781 303.515625 " fill-opacity="1" fill-rule="nonzero"/><path fill="#eceff1" d="M 149.753906 67.28125 C 142.851562 67.273438 137.253906 75.867188 137.246094 86.480469 C 137.246094 97.089844 142.832031 105.695312 149.734375 105.695312 C 149.746094 105.695312 149.746094 105.695312 149.753906 105.695312 C 156.65625 105.703125 162.253906 97.109375 162.261719 86.5 C 162.273438 75.886719 156.675781 67.28125 149.773438 67.28125 C 149.761719 67.28125 149.761719 67.28125 149.753906 67.28125 Z M 193.023438 63.441406 C 183.996094 63.441406 176.675781 73.332031 176.675781 85.527344 C 176.675781 97.722656 183.996094 107.617188 193.023438 107.617188 C 202.050781 107.617188 209.371094 97.722656 209.371094 85.527344 C 209.371094 73.332031 202.050781 63.441406 193.023438 63.441406 Z M 193.023438 63.441406 " fill-opacity="1" fill-rule="nonzero"/><path fill="#212121" d="M 156.890625 87.5 C 156.984375 88.253906 157.035156 89 157.042969 89.75 C 157.050781 90.496094 157.015625 91.226562 156.9375 91.941406 C 156.855469 92.65625 156.734375 93.339844 156.570312 93.996094 C 156.40625 94.648438 156.203125 95.261719 155.957031 95.832031 C 155.714844 96.402344 155.4375 96.917969 155.125 97.382812 C 154.816406 97.84375 154.472656 98.246094 154.105469 98.585938 C 153.738281 98.921875 153.347656 99.191406 152.933594 99.394531 C 152.523438 99.59375 152.097656 99.722656 151.660156 99.777344 C 151.222656 99.832031 150.777344 99.8125 150.328125 99.722656 C 149.882812 99.628906 149.4375 99.464844 148.996094 99.230469 C 148.554688 98.992188 148.125 98.691406 147.707031 98.320312 C 147.289062 97.949219 146.890625 97.515625 146.515625 97.023438 C 146.136719 96.535156 145.789062 95.992188 145.464844 95.398438 C 145.140625 94.804688 144.851562 94.171875 144.597656 93.5 C 144.34375 92.828125 144.125 92.128906 143.945312 91.402344 C 143.765625 90.675781 143.628906 89.9375 143.535156 89.1875 C 143.441406 88.4375 143.390625 87.6875 143.382812 86.941406 C 143.375 86.195312 143.410156 85.464844 143.488281 84.75 C 143.570312 84.035156 143.691406 83.347656 143.855469 82.695312 C 144.019531 82.039062 144.226562 81.425781 144.46875 80.855469 C 144.710938 80.289062 144.988281 79.769531 145.300781 79.308594 C 145.613281 78.84375 145.953125 78.445312 146.320312 78.105469 C 146.6875 77.765625 147.078125 77.496094 147.492188 77.296875 C 147.902344 77.097656 148.328125 76.96875 148.765625 76.914062 C 149.203125 76.855469 149.648438 76.875 150.097656 76.96875 C 150.542969 77.058594 150.988281 77.222656 151.429688 77.460938 C 151.871094 77.695312 152.300781 78 152.71875 78.371094 C 153.136719 78.742188 153.535156 79.171875 153.910156 79.664062 C 154.289062 80.15625 154.636719 80.699219 154.960938 81.292969 C 155.285156 81.886719 155.574219 82.519531 155.828125 83.191406 C 156.085938 83.863281 156.300781 84.5625 156.480469 85.289062 C 156.660156 86.011719 156.796875 86.75 156.890625 87.5 Z M 156.890625 87.5 " fill-opacity="1" fill-rule="nonzero"/><path fill="#212121" d="M 192.214844 76.578125 C 186.90625 76.578125 182.601562 82.15625 182.589844 89.054688 C 182.582031 95.949219 186.886719 101.535156 192.195312 101.546875 C 192.195312 101.546875 192.207031 101.546875 192.207031 101.546875 C 197.511719 101.546875 201.820312 95.96875 201.832031 89.070312 C 201.839844 82.175781 197.53125 76.589844 192.226562 76.578125 C 192.226562 76.578125 192.214844 76.578125 192.214844 76.578125 Z M 192.214844 76.578125 " fill-opacity="1" fill-rule="nonzero"/><path fill="#ffc107" d="M 144.945312 129.703125 C 139.175781 125.859375 134.371094 122.019531 134.371094 116.257812 C 134.371094 110.496094 138.214844 108.574219 143.984375 103.773438 C 144.945312 102.8125 155.523438 93.210938 166.101562 93.210938 C 176.675781 93.210938 189.175781 99.933594 193.984375 101.855469 C 202.636719 103.773438 211.292969 105.695312 210.332031 112.417969 C 209.371094 122.019531 208.40625 123.941406 198.792969 128.742188 C 192.0625 130.664062 179.5625 141.226562 170.90625 141.226562 C 167.0625 141.226562 161.292969 141.226562 157.445312 140.265625 C 154.5625 139.304688 149.753906 134.503906 144.945312 129.703125 Z M 144.945312 129.703125 " fill-opacity="1" fill-rule="nonzero"/><path fill="#634703" d="M 139.371094 115.066406 C 139.371094 115.066406 148.636719 125.1875 161.464844 124.671875 C 174.292969 124.152344 192.3125 114.117188 199.589844 109.441406 C 202.792969 107.796875 204.101562 109.355469 201.0625 112.03125 C 197.667969 115.039062 176.03125 127.148438 167.359375 128.300781 C 164.761719 128.644531 156.792969 128.730469 154.53125 128.039062 C 152.273438 127.347656 140.621094 121 138.15625 117.3125 C 136.253906 114.453125 138.9375 114.453125 139.371094 115.066406 Z M 139.371094 115.066406 " fill-opacity="1" fill-rule="nonzero"/><path fill="#634703" d="M 160.859375 102.085938 C 160.859375 102.085938 159.214844 102.226562 158.128906 103.542969 C 157.042969 104.859375 155.832031 102.785156 156.871094 101.652344 C 157.90625 100.519531 159.03125 99.230469 161.378906 99.921875 C 163.726562 100.613281 161.464844 101.910156 160.859375 102.085938 Z M 160.859375 102.085938 " fill-opacity="1" fill-rule="nonzero"/><path fill="#634703" d="M 173.023438 102.085938 C 173.023438 102.085938 174.667969 102.226562 175.753906 103.542969 C 176.839844 104.859375 178.050781 102.785156 177.011719 101.652344 C 175.976562 100.519531 174.851562 99.230469 172.503906 99.921875 C 170.15625 100.613281 172.417969 101.910156 173.023438 102.085938 Z M 173.023438 102.085938 " fill-opacity="1" fill-rule="nonzero"/></svg>